<?xml version="1.0" encoding="UTF-8"?>
<svg xmlns="http://www.w3.org/2000/svg" xmlns:xlink="http://www.w3.org/1999/xlink" width="693pt" height="436pt" viewBox="0 0 693 436" version="1.1">
<g id="surface0" style="fill:none;stroke-width:0.83;stroke-linecap:butt; stroke-linejoin:round;stroke:rgb(0%,0%,0%);stroke-opacity:1; stroke-miterlimit:10;fill-rule:nonzero;fill-opacity:1;" transform="matrix(1,0,0,-1,-6,445.42)">
<path style="stroke-width:1.04;" d="M 353.7 33.09 L 353.62 27.07 L 389.84 26.32 L 389.92 32.9"/>
<path style="stroke-width:1.56;" d="M 228.56 43.73 L 254.91 45.27 C 254.91 45.27 287.77 55.01 340.52 61.48 C 340.52 61.48 368.92 75.79 394.52 76.96 C 420.11 78.14 498.64 69.98 498.64 69.98 L 574.25 69.38 L 646.71 116.99 L 686.23 117.98 C 686.23 117.98 688.47 116.82 687.68 113.45 C 686.88 110.07 673.85 62.46 673.85 62.46 C 673.85 62.46 675.84 55.85 673.97 42.52 C 673.97 42.52 628.5 32.01 629.68 35.56 C 629.68 35.56 627.58 33.52 624.37 32.43 L 558.09 26.7 L 551.39 32.62 L 307.05 33.32 C 307.05 33.32 268.72 36.07 254.87 42.26 L 228.56 43.73 Z M 228.56 43.73"/>
<path style="stroke-width:1.56;" d="M 525.54 11.68 C 531.26 11.61 535.96 16.19 536.03 21.91 C 536.11 27.63 531.53 32.33 525.8 32.4 C 520.09 32.47 515.39 27.9 515.31 22.18 C 515.24 16.45 519.82 11.76 525.54 11.68 Z M 525.54 11.68"/>
<path d="M 525.59 15.79 C 529.04 15.75 531.88 18.51 531.92 21.96 C 531.96 25.41 529.2 28.25 525.75 28.29 C 522.3 28.34 519.46 25.57 519.42 22.12 C 519.37 18.67 522.14 15.84 525.59 15.79 Z M 525.59 15.79"/>
<path style="stroke-width:1.56;" d="M 382.96 11.73 C 386.34 11.7 389.11 14.4 389.16 17.78 C 389.2 21.16 386.49 23.93 383.11 23.97 C 379.74 24.02 376.96 21.31 376.92 17.93 C 376.87 14.56 379.58 11.78 382.96 11.73 Z M 382.96 11.73"/>
<path d="M 388.87 76.66 L 383.41 61.68 L 369.86 61.1 L 369.62 72.01 L 365.48 71.31 L 365.34 60.4 C 365.34 60.4 343.12 58.81 339.39 61.11"/>
<path d="M 687.68 113.45 L 644.81 115.5"/>
<path d="M 673.39 114.01 L 645.64 63.2"/>
<path style="stroke-width:1.56;" d="M 673.85 62.46 L 497.13 70"/>
<path style="stroke-width:1.04;" d="M 484.99 32.91 C 484.99 32.91 505.91 21.36 512.12 21.56 L 512.05 24.57 C 512.05 24.57 504.75 26.17 497.69 32.65"/>
<path d="M 308.48 56.62 C 308.48 56.62 305.78 51.01 308.18 32.93"/>
<path d="M 390.25 66.48 C 390.25 66.48 415.55 74.06 536.52 61.59 L 534.61 58.98 C 534.61 58.98 406.31 57.62 390.25 66.48 Z M 390.25 66.48 " />
<path d="M 661.89 39.66 C 661.89 39.66 663.64 58.08 662.2 62.99"/>
<path d="M 654.35 37.88 C 654.35 37.88 656.46 55.91 654.3 63.09"/>
<path d="M 629.68 35.56 C 629.68 35.56 632.37 55.09 629.86 63.78"/>
<path style="stroke:none;fill:rgb(100%,100%,100%);" d="M 575.61 388.55 C 575.61 388.55 630.64 380.23 691.45 391.16 C 691.45 391.16 601.54 390.76 575.61 388.55 " transform="matrix(1,0,0,-1,6,445.42)"/>
<path d="M 581.61 56.88 C 581.61 56.88 636.64 65.2 697.45 54.26 C 697.45 54.26 607.54 54.66 581.61 56.88 Z M 581.61 56.88"/>
<path d="M 382.99 14.4 C 384.9 14.38 386.47 15.9 386.49 17.81 C 386.52 19.72 384.99 21.29 383.08 21.31 C 381.17 21.34 379.61 19.81 379.58 17.9 C 379.55 15.99 381.08 14.42 382.99 14.4 Z M 382.99 14.4"/>
<path style="stroke-width:1.56;" d="M 352.61 11.28 L 648.54 11.28"/>
<path style="stroke-width:1.04;" d="M 119.02 257.22 C 130.58 257.18 141.15 257.15 149.3 257.12"/>
<path d="M 149.3 257.12 C 159.32 257.08 165.67 257.06 165.67 257.06 C 165.67 257.06 190.41 256.18 222.85 271.62"/>
<path style="stroke-width:1.56;" d="M 223.46 271.91 C 223.57 271.97 223.68 272.02 223.8 272.08 L 304.81 242.63 L 345.09 242.29 C 345.09 242.29 394.62 240.9 414.67 237.16 C 434.72 233.41 445.61 227.89 445.61 227.89 L 475.16 227.43 L 475.45 227.43 L 445.92 226.11 C 445.92 226.11 435.2 220.28 415.26 215.96 C 395.32 211.63 345.86 208.81 345.86 208.81 L 305.61 207.31 L 226.4 175.64 L 225.71 175.21"/>
<path style="stroke-width:1.56;" d="M 118.83 257.52 L 119.26 257.13 C 119.26 257.13 114.46 257.21 113.9 257.19 C 113.33 257.18 28.9 312.6 28.9 312.6 C 28.9 312.6 28.3 313.71 26.67 311.59 C 25.37 309.91 18.07 298.61 14.94 294.5 L 12.3 294.41 C 9.96 293.87 9.93 291.7 12.21 290.8 L 15.12 290.89 L 24.15 259 L 12.32 254.99 C 12.32 254.99 11.02 254.1 12.37 253.73 C 14.19 253.22 21.95 251.89 24.27 251.66 L 32.76 250.88 L 32.72 229.35 L 22.67 228.78 C 22.67 228.78 22.27 229.71 20.74 227.4 L 9.18 226.88 C 9.18 226.88 7.51 225.98 7.28 224.09 L 7.39 223.11 C 7.68 221.22 9.56 220.38 9.56 220.38 L 21.12 220.19 C 22.72 217.93 23.1 218.88 23.1 218.88 L 33.16 218.59 L 33.07 197.06 L 24.61 196.02 C 22.29 195.73 14.57 194.18 12.77 193.61 C 11.44 193.2 12.75 192.36 12.75 192.36 L 24.7 188.69 L 16.6 156.55 L 13.68 156.55 C 11.44 155.58 11.53 153.42 13.88 152.95 L 16.52 152.93 C 19.77 148.91 28.15 137.86 29.5 136.21 C 31.19 134.14 31.75 135.27 31.75 135.27 C 31.75 135.27 114.13 188.69 116.11 189.63 L 122.97 189.81 L 122.68 189.54"/>
<path d="M 389.11 212.86 C 389.11 212.86 395.89 225.74 387.99 239.94"/>
<path d="M 384.6 211.63 C 384.6 211.63 387.61 215.77 372.56 215.4 C 372.56 215.4 319.52 211.63 308.99 209.75 L 310.49 223.67 L 329.68 223.67 C 329.68 223.67 329.3 212.01 328.18 211.82"/>
<path style="stroke-width:1.04;" d="M 384.77 240.22 C 384.77 240.22 387.86 236.14 372.8 236.22 C 372.8 236.22 319.7 238.93 309.13 240.6 L 310.91 226.71 L 330.09 227.09 C 330.09 227.09 329.49 238.74 328.36 238.91"/>
<path d="M 348.86 213.51 C 348.86 213.51 355.82 225.55 348.68 237.4"/>
<path d="M 24.7 189.81 C 25.81 189.5 166.42 189.81 166.42 189.81 C 166.42 189.81 202.7 189.44 226.4 175.64"/>
<path style="stroke-width:1.67;" d="M 226.4 175.64 C 226.47 175.6 226.54 175.56 226.61 175.52"/>
<path d="M 226.42 195.27 L 226.23 215.4 L 220.96 215.58 C 220.96 215.58 220.96 201.66 215.51 199.22 L 215.51 195.45 L 226.42 195.27 Z M 226.42 195.27"/>
<path d="M 198.77 201.85 L 203.66 201.85 L 203.66 209.75 L 198.77 209.75 L 198.77 201.85 Z M 198.77 201.85"/>
<path d="M 204.41 183.99 L 204.41 215.96 L 154.1 215.96 L 114.7 188.69"/>
<path d="M 154.95 215.96 L 65.23 217.09 L 60.15 218.59 L 33.16 218.59 L 33.07 197.06 C 33.07 197.06 61.66 195.65 65.23 199.22 L 65.23 217.09"/>
<path d="M 50 196.77 L 50 218.59"/>
<path style="stroke-width:1.04;" d="M 23.95 257.06 C 25.19 257.41 78.2 257.33 119.02 257.22"/>
<path d="M 226.42 251.98 L 226.23 231.85 L 220.96 231.66 C 220.96 231.66 220.96 245.58 215.51 248.03 L 215.51 251.79 L 226.42 251.98 Z M 226.42 251.98"/>
<path d="M 198.77 237.49 L 203.66 237.49 L 203.66 245.4 L 198.77 245.4 L 198.77 237.49 Z M 198.77 237.49"/>
<path d="M 204.41 263.26 L 204.41 231.29 L 154.1 231.29 L 113.9 257.19"/>
<path d="M 154.95 231.29 L 65.23 230.16 L 60.15 228.65 L 33.16 228.65 L 33.07 250.19 C 33.07 250.19 61.66 251.6 65.23 248.03 L 65.23 230.16"/>
<path d="M 50 250.47 L 50 228.65"/>
<path style="stroke-width:2.08;stroke-dasharray:4.17,4.17;" d="M 122.68 189.54 L 30.39 121.88 C 30.39 121.88 35.37 112.17 39.92 107.91 C 44.46 103.64 54.45 102.88 54.45 102.88 L 62.14 105.82 L 224.96 175.21"/>
<path style="stroke-width:2.08;" d="M 146.75 17.66 L 160.35 189.36"/>
<path style="stroke-width:2.08;" d="M 146.75 17.58 C 146.75 17.58 157.34 15.02 163.54 15.67 C 169.74 16.32 176.84 23.4 176.84 23.4 L 179.64 31.13 L 225.76 175.72"/>
<path style="stroke-width:2.08;;stroke-dasharray:4.17,4.17;" d="M 120.55 258.36 L 28.27 326.03 C 28.27 326.03 33.24 335.73 37.78 340 C 42.33 344.27 52.32 345.02 52.32 345.02 L 60 342.09 L 222.84 272.69"/>
<path style="stroke-width:2.08;" d="M 144.62 430.25 L 158.22 258.54 L 158.3 257.34"/>
<path style="stroke-width:2.08;" d="M 144.61 430.32 C 144.61 430.32 155.21 432.89 161.41 432.23 C 167.61 431.58 174.71 424.51 174.71 424.51 L 177.5 416.77 L 223.63 272.18"/>
<path style="stroke:none;fill:rgb(100%,100%,100%);" d="M 460.69 82.13 C 468.18 82.13 474.26 77 474.26 70.68 C 474.26 64.37 468.18 59.25 460.69 59.25 C 453.2 59.25 447.13 64.37 447.13 70.68 C 447.13 77 453.2 82.13 460.69 82.13 " transform="matrix(1,0,0,-1,6,445.42)"/>
<path d="M 466.7 363.3 C 474.19 363.3 480.26 368.42 480.26 374.74 C 480.26 381.05 474.19 386.18 466.7 386.18 C 459.2 386.18 453.13 381.05 453.13 374.74 C 453.13 368.42 459.2 363.3 466.7 363.3 Z M 466.7 363.3"/>
<path d="M 432.18 363.26 L 432.18 363.26 Z M 432.18 363.26"/>
<path d="M 439.71 340.61 C 441.7 340.61 443.31 342.22 443.31 344.21 L 443.31 359.65 C 443.31 361.64 441.7 363.26 439.71 363.26 L 434.81 363.26 C 432.82 363.26 431.21 361.64 431.21 359.65 L 431.21 344.21 C 431.21 342.22 432.82 340.61 434.81 340.61 L 439.71 340.61 Z M 439.71 340.61"/>
<path d="M 466.98 407.75 C 466.98 407.75 447.51 405.58 446.57 390.44 C 445.78 377.66 445.91 364.86 454.85 363.92 C 464.06 362.95 466.98 362.7 466.98 362.7"/>
<path style="stroke:none;fill:rgb(100%,100%,100%);" d="M 460.46 72.05 C 461.38 72.05 462.12 71.4 462.12 70.59 C 462.12 69.79 461.38 69.13 460.46 69.13 C 459.54 69.13 458.79 69.79 458.79 70.59 C 458.79 71.4 459.54 72.05 460.46 72.05 " transform="matrix(1,0,0,-1,6,445.42)"/>
<path d="M 466.46 373.37 C 467.38 373.37 468.12 374.02 468.12 374.83 C 468.12 375.64 467.38 376.29 466.46 376.29 C 465.54 376.29 464.8 375.64 464.8 374.83 C 464.8 374.02 465.54 373.37 466.46 373.37 Z M 466.46 373.37"/>
<path d="M 449.86 361.57 L 451.18 351.6 C 451.18 351.6 450.43 349.34 454.94 349.54 C 459.45 349.72 462.46 350.1 462.46 350.1 C 462.46 350.1 463.22 361.57 462.65 362.89 C 462.09 364.2 449.48 364.77 449.86 361.57 Z M 449.86 361.57"/>
<path d="M 443.28 349.91 L 451.18 351.6 L 450.43 356.68 L 443.46 353.29 L 443.28 349.91 Z M 443.28 349.91"/>
<path d="M 450.43 357.81 C 450.43 357.81 427.67 363.46 428.79 394.67 L 451.74 400.88 L 428.79 394.67 L 427.22 394.62"/>
<path d="M 428.25 386.59 L 443.28 386.59 C 443.28 386.59 431.43 383.2 447.04 378.12"/>
<path d="M 430.3 386.4 C 430.3 386.4 429.17 372.1 446.29 367.97"/>
<path style="stroke:none;fill:rgb(100%,100%,100%);" d="M 440.66 78.4 C 440.66 78.4 437.59 64.91 440.29 58.08 C 440.29 58.08 442.92 69.56 440.66 78.4 " transform="matrix(1,0,0,-1,6,445.42)"/>
<path d="M 446.66 367.02 C 446.66 367.02 443.6 380.52 446.29 387.34 C 446.29 387.34 448.92 375.86 446.66 367.02 Z M 446.66 367.02"/>
<path style="stroke:none;fill:rgb(100%,100%,100%);" d="M 457.12 102.94 C 458.21 102.94 459.09 102.06 459.09 100.97 L 459.09 94.2 C 459.09 93.11 458.21 92.22 457.12 92.22 C 456.03 92.22 455.14 93.11 455.14 94.2 L 455.14 100.97 C 455.14 102.06 456.03 102.94 457.12 102.94 " transform="matrix(1,0,0,-1,6,445.42)"/>
<path d="M 463.12 342.48 C 464.21 342.48 465.09 343.36 465.09 344.45 L 465.09 351.23 C 465.09 352.32 464.21 353.2 463.12 353.2 C 462.03 353.2 461.15 352.32 461.15 351.23 L 461.15 344.45 C 461.15 343.36 462.03 342.48 463.12 342.48 Z M 463.12 342.48"/>
<path style="stroke-width:1.56;" d="M 466.6 444.14 C 466.6 444.14 462.37 442.64 465.47 439.25 L 463.97 407.56 C 463.97 407.56 457.38 405.86 451.18 400.6 L 428.79 394.67"/>
<path style="stroke-width:1.56;" d="M 428.79 394.67 L 261.21 389.97 C 261.21 389.97 256.16 389.03 261.44 386.59 L 429.25 386.4"/>
<path style="stroke-width:1.56;" d="M 429.17 386.4 C 429.17 386.4 427.98 374.65 440.9 363.03 C 440.9 363.03 434.25 363.07 434.81 363.26 C 435.37 363.44 431.24 364.02 431.24 358.75 C 431.24 353.49 431.24 343.7 431.21 344.21 C 431.17 344.72 431.05 340.04 436.32 340.6 C 441.59 341.16 442.37 340.64 443.31 344.21 C 444.25 347.79 443.28 349.91 443.28 349.91 L 451.18 351.6 C 451.18 351.6 451.37 349.44 453.81 349.54 C 456.26 349.63 461.15 349.96 461.15 349.96 L 461.15 344.45 C 461.15 344.45 463.03 340.13 465.09 344.45 L 465.09 345.58 L 466.6 345.58"/>
<path d="M 500.64 363.26 L 500.64 363.26 Z M 500.64 363.26"/>
<path d="M 493.12 340.61 C 491.13 340.61 489.51 342.22 489.51 344.21 L 489.51 359.65 C 489.51 361.64 491.13 363.26 493.12 363.26 L 498.01 363.26 C 500 363.26 501.62 361.64 501.62 359.65 L 501.62 344.21 C 501.62 342.22 500 340.61 498.01 340.61 L 493.12 340.61 Z M 493.12 340.61"/>
<path d="M 466.41 407.75 C 466.41 407.75 485.32 405.58 486.25 390.44 C 487.05 377.66 486.92 364.86 477.98 363.92 C 468.77 362.95 466.41 362.7 466.41 362.7"/>
<path d="M 482.96 361.57 L 481.65 351.6 C 481.65 351.6 482.4 349.34 477.89 349.54 C 473.37 349.72 470.36 350.1 470.36 350.1 C 470.36 350.1 469.61 361.57 470.18 362.89 C 470.74 364.2 483.34 364.77 482.96 361.57 Z M 482.96 361.57"/>
<path d="M 489.55 349.91 L 481.65 351.6 L 482.4 356.68 L 489.36 353.29 L 489.55 349.91 Z M 489.55 349.91"/>
<path d="M 482.4 357.81 C 482.4 357.81 501.15 362.47 503.77 386.66 C 504.03 389.13 504.13 391.79 504.03 394.67"/>
<path d="M 503.62 386.59 L 489.55 386.59 C 489.55 386.59 501.4 383.2 485.78 378.12"/>
<path d="M 502.53 386.4 C 502.53 386.4 503.66 372.1 486.54 367.97"/>
<path style="stroke:none;fill:rgb(100%,100%,100%);" d="M 480.16 78.4 C 480.16 78.4 483.23 64.91 480.54 58.08 C 480.54 58.08 477.9 69.56 480.16 78.4 " transform="matrix(1,0,0,-1,6,445.42)"/>
<path d="M 486.16 367.02 C 486.16 367.02 489.23 380.52 486.54 387.34 C 486.54 387.34 483.91 375.86 486.16 367.02 Z M 486.16 367.02"/>
<path style="stroke:none;fill:rgb(100%,100%,100%);" d="M 463.7 102.94 C 462.61 102.94 461.73 102.06 461.73 100.97 L 461.73 94.2 C 461.73 93.11 462.61 92.22 463.7 92.22 C 464.79 92.22 465.68 93.11 465.68 94.2 L 465.68 100.97 C 465.68 102.06 464.79 102.94 463.7 102.94 " transform="matrix(1,0,0,-1,6,445.42)"/>
<path d="M 469.7 342.48 C 468.61 342.48 467.73 343.36 467.73 344.45 L 467.73 351.23 C 467.73 352.32 468.61 353.2 469.7 353.2 C 470.8 353.2 471.68 352.32 471.68 351.23 L 471.68 344.45 C 471.68 343.36 470.8 342.48 469.7 342.48 Z M 469.7 342.48"/>
<path style="stroke-width:1.56;" d="M 466.79 444.14 C 466.79 444.14 470.46 442.64 467.35 439.25 L 468.86 407.56 C 468.86 407.56 475.44 405.86 481.65 400.6 L 504.03 394.67"/>
<path style="stroke-width:1.56;" d="M 503.66 386.4 C 503.66 386.4 504.84 374.65 491.93 363.03 C 491.93 363.03 498.58 363.07 498.01 363.26 C 497.45 363.44 501.59 364.02 501.59 358.75 C 501.59 353.49 501.59 343.7 501.62 344.21 C 501.66 344.72 501.77 340.04 496.51 340.6 C 491.24 341.16 490.45 340.64 489.51 344.21 C 488.57 347.79 489.55 349.91 489.55 349.91 L 481.65 351.6 C 481.65 351.6 481.46 349.44 479.02 349.54 C 476.57 349.63 471.68 349.96 471.68 349.96 L 471.68 344.45 C 471.68 344.45 469.8 340.13 467.73 344.45 L 467.73 345.58 L 466.79 345.58"/>
<path d="M 464.06 404.74 C 464.06 404.74 452.02 404.08 448.64 391.48 C 448.64 391.48 449.11 388.65 449.77 390.35 C 450.43 392.04 453.62 400.6 463.87 402.38 L 464.06 404.74 Z M 464.06 404.74"/>
<path d="M 450.89 388.84 C 450.89 388.84 454.28 386.59 455.88 387.81 C 457.48 389.03 459.74 392.42 464.62 393.45 L 464.25 400.22 C 464.25 400.22 456.16 400.79 450.89 388.84 Z M 450.89 388.84"/>
<path d="M 468.67 404.74 C 468.67 404.74 480.71 404.08 484.09 391.48 C 484.09 391.48 483.62 388.65 482.96 390.35 C 482.31 392.04 479.11 400.6 468.86 402.38 L 468.67 404.74 Z M 468.67 404.74"/>
<path d="M 481.84 388.84 C 481.84 388.84 478.45 386.59 476.85 387.81 C 475.25 389.03 473 392.42 468.11 393.45 L 468.48 400.22 C 468.48 400.22 476.57 400.79 481.84 388.84 Z M 481.84 388.84"/>
<path style="stroke-width:1.56;" d="M 504.11 394.67 L 671.7 389.97 C 671.7 389.97 676.75 389.03 671.46 386.59 L 503.66 386.4"/>
<path style="stroke-width:0.88;" d="M 339.65 340.87 L 594.17 340.87"/>
</g>
</svg>
